<svg aria-hidden="true" xmlns="http://www.w3.org/2000/svg" xmlns:xlink="http://www.w3.org/1999/xlink">
<defs>
    <symbol id="heart" viewBox="0 0 45 45">
        <path fill="#FF6B08" d="M34.199,3.83c-3.944,0-7.428,1.98-9.51,4.997c0,0-0.703,1.052-1.818,1.052c-1.114,0-1.817-1.052-1.817-1.052
		    c-2.083-3.017-5.565-4.997-9.51-4.997C5.168,3.83,0,8.998,0,15.376c0,1.506,0.296,2.939,0.82,4.258
		    c3.234,10.042,17.698,21.848,22.051,22.279c4.354-0.431,18.816-12.237,22.052-22.279c0.524-1.318,0.82-2.752,0.82-4.258
		    C45.743,8.998,40.575,3.83,34.199,3.83z"/>
    </symbol>
    <symbol id="logo" width="24" height="24" viewBox="0 0 24 24" fill="none" xmlns="http://www.w3.org/2000/svg">
        <path d="M19.82 2H4.18C2.97602 2 2 2.97602 2 4.18V19.82C2 21.024 2.97602 22 4.18 22H19.82C21.024 22 22 21.024 22 19.82V4.18C22 2.97602 21.024 2 19.82 2Z" stroke="white" stroke-width="2" stroke-linecap="round" stroke-linejoin="round"/>
        <path d="M7 2V22" stroke="white" stroke-width="2" stroke-linecap="round" stroke-linejoin="round"/>
        <path d="M17 2V22" stroke="white" stroke-width="2" stroke-linecap="round" stroke-linejoin="round"/>
        <path d="M2 12H22" stroke="white" stroke-width="2" stroke-linecap="round" stroke-linejoin="round"/>
        <path d="M2 7H7" stroke="white" stroke-width="2" stroke-linecap="round" stroke-linejoin="round"/>
        <path d="M2 17H7" stroke="white" stroke-width="2" stroke-linecap="round" stroke-linejoin="round"/>
        <path d="M17 17H22" stroke="white" stroke-width="2" stroke-linecap="round" stroke-linejoin="round"/>
        <path d="M17 7H22" stroke="white" stroke-width="2" stroke-linecap="round" stroke-linejoin="round"/>
    </symbol>
    <symbol id="search" width="16px" height="16px" viewBox="0 0 30 30">
        <path fill="white" d="M 13 3 C 7.4889971 3 3 7.4889971 3 13 C 3 18.511003 7.4889971 23 13 23 C 15.396508 23 17.597385 22.148986 19.322266 20.736328 L 25.292969 26.707031 A 1.0001 1.0001 0 1 0 26.707031 25.292969 L 20.736328 19.322266 C 22.148986 17.597385 23 15.396508 23 13 C 23 7.4889971 18.511003 3 13 3 z M 13 5 C 17.430123 5 21 8.5698774 21 13 C 21 17.430123 17.430123 21 13 21 C 8.5698774 21 5 17.430123 5 13 C 5 8.5698774 8.5698774 5 13 5 z"/>
    </symbol>
</defs>
</svg>